<?xml version="1.0" standalone="no"?><!DOCTYPE svg PUBLIC "-//W3C//DTD SVG 1.1//EN" "http://www.w3.org/Graphics/SVG/1.1/DTD/svg11.dtd"><svg t="1611050829236" class="icon" viewBox="0 0 1024 1024" version="1.1" xmlns="http://www.w3.org/2000/svg" p-id="733" xmlns:xlink="http://www.w3.org/1999/xlink" width="200" height="200"><defs><style type="text/css"></style></defs><path d="M846.737726 551.368863a177.236676 177.236676 0 0 1 177.236677 177.236676v216.60554a78.788921 78.788921 0 0 1-78.788922 78.788921h-216.605539a177.236676 177.236676 0 0 1-177.236676-177.236676v-216.60554a78.788921 78.788921 0 0 1 78.788921-78.788921z m-452.869913 0a78.788921 78.788921 0 0 1 78.737726 77.457854v217.885412A177.236676 177.236676 0 0 1 298.542946 1023.89761H79.019298a78.788921 78.788921 0 0 1-78.737726-77.457854v-217.885411a177.236676 177.236676 0 0 1 174.062594-177.185482h219.523647z m452.869913 59.078892h-216.656734a19.710029 19.710029 0 0 0-19.710029 19.710029v216.60554a118.157784 118.157784 0 0 0 118.157784 118.157784h216.60554a19.710029 19.710029 0 0 0 19.710029-19.710029v-216.60554a118.157784 118.157784 0 0 0-118.157785-118.157784z m-452.869913 0H177.262274a118.157784 118.157784 0 0 0-118.157784 116.212379v218.550945a19.710029 19.710029 0 0 0 19.146885 19.710029H295.420058a118.157784 118.157784 0 0 0 118.106589-116.212379v-218.550945a19.710029 19.710029 0 0 0-19.710029-19.710029zM295.420058 0.051195a177.236676 177.236676 0 0 1 177.236676 177.236676v216.60554a78.788921 78.788921 0 0 1-78.737726 78.788921H177.313469A177.236676 177.236676 0 0 1 0.076792 295.445655V78.840116A78.737726 78.737726 0 0 1 78.865713 0.10239z m532.017198 0a29.539446 29.539446 0 0 1 29.539446 29.539446 29.539446 29.539446 0 0 1-29.539446 29.539446h-98.806119a118.157784 118.157784 0 0 0-118.157784 118.157784v216.60554a19.710029 19.710029 0 0 0 19.710029 19.710029h216.605539a118.157784 118.157784 0 0 0 118.157784-118.157785V197.049095a29.539446 29.539446 0 0 1 29.539446-29.539446 29.539446 29.539446 0 0 1 29.539446 29.539446v98.550145a177.236676 177.236676 0 0 1-177.236676 177.236676h-216.707929a78.788921 78.788921 0 0 1-78.788921-78.788921V177.441456A177.236676 177.236676 0 0 1 728.528747 0.20478zM295.420058 59.130087H78.814519a19.710029 19.710029 0 0 0-19.710029 19.710029v216.605539a118.157784 118.157784 0 0 0 118.157784 118.157785h216.605539a19.710029 19.710029 0 0 0 19.710029-19.710029V177.287871A118.157784 118.157784 0 0 0 295.420058 59.130087zM964.89551 0.051195a59.078892 59.078892 0 0 1 59.078893 59.078892 59.078892 59.078892 0 0 1-59.078893 59.078892 59.078892 59.078892 0 0 1-59.078892-59.078892A59.078892 59.078892 0 0 1 964.89551 0.051195z m0 0" p-id="734"></path></svg>