<svg xmlns="http://www.w3.org/2000/svg" width="17.43" height="21.011" viewBox="0 0 17.43 21.011">
  <g id="组_1357" data-name="组 1357" transform="translate(-1790.99 -885.589)">
    <path id="路径_526" data-name="路径 526" d="M1808.42,902.46c0,2.72-4.39,4.14-8.72,4.14s-8.71-1.42-8.71-4.14a2.482,2.482,0,0,1,.61-1.61.3.3,0,0,1,.05-.07l.06-.11a11.21,11.21,0,0,0,.83-1.59,5.589,5.589,0,0,0,.45-2.17V894.4c0-3.84,2.05-6.08,5.8-6.39,0,0,.44-.03.9-.03s.93.03.93.03c3.74.31,5.79,2.55,5.79,6.39v2.51a5.293,5.293,0,0,0,.44,2.17,13.084,13.084,0,0,0,.7,1.29c.1.16.2.32.29.48.01.03.03.05.04.08A2.5,2.5,0,0,1,1808.42,902.46Z" fill="#3178ff"/>
    <line id="直线_205" data-name="直线 205" y2="1.64" transform="translate(1799.65 886.339)" fill="none" stroke="#3178ff" stroke-linecap="round" stroke-linejoin="round" stroke-width="1.5"/>
    <g id="组_1354" data-name="组 1354">
      <g id="组_1353" data-name="组 1353">
        <path id="路径_527" data-name="路径 527" d="M1799.874,902.33h-.344a2.582,2.582,0,0,1-2.579-2.58.794.794,0,0,1,.75-.8.71.71,0,0,1,.75.7v.1a1.08,1.08,0,0,0,1.079,1.08h.344a1.081,1.081,0,0,0,1.08-1.08.794.794,0,0,1,.75-.8.71.71,0,0,1,.75.7A2.605,2.605,0,0,1,1799.874,902.33Z" fill="#fff"/>
      </g>
    </g>
    <g id="组_1356" data-name="组 1356">
      <g id="组_1355" data-name="组 1355">
        <path id="路径_528" data-name="路径 528" d="M1797.419,898.4c.423-.025.748-.041,1.075-.051l.181,0c.648-.017,1.368-.018,2.058,0" fill="none"/>
        <path id="路径_529" data-name="路径 529" d="M1807.84,900.85a.292.292,0,0,1-.16-.01,22.948,22.948,0,0,0-2.6-.58l-.21-.03c-.24-.04-.44-.07-.64-.1l-.52-.06-.89-.1-.73-.06-.38-.02c-.26-.01-.53-.03-.81-.04l-.22-.01c-.64-.01-1.32-.01-1.99,0l-.17.01c-.29.01-.6.02-.91.04l-.21.01c-.3.02-.61.05-.92.08a25.966,25.966,0,0,0-4.75.85.585.585,0,0,1-.13.02.3.3,0,0,1,.05-.07l.06-.11a11.21,11.21,0,0,0,.83-1.59,29.9,29.9,0,0,1,3.72-.59c.39-.04.72-.06,1.05-.08l3.42-.06h.23c.28.01.57.03.86.04l.38.03.76.06.89.09c.23.03.42.05.6.08l.62.09.28.04c.5.09,1.01.18,1.5.3a13.084,13.084,0,0,0,.7,1.29C1807.65,900.53,1807.75,900.69,1807.84,900.85Z" fill="#fff"/>
      </g>
    </g>
  </g>
</svg>
