<svg xmlns="http://www.w3.org/2000/svg" width="18.932" height="21.76" viewBox="0 0 18.932 21.76">
  <g id="组_1361" data-name="组 1361" transform="translate(-1790.239 -861.681)">
    <path id="路径_532" data-name="路径 532" d="M1797.7,875.847v.1a1.836,1.836,0,0,0,1.831,1.83h.343a1.835,1.835,0,0,0,1.83-1.83v-.1" fill="none" stroke="#c9c9cb" stroke-linecap="round" stroke-linejoin="round" stroke-width="1.5"/>
    <path id="路径_533" data-name="路径 533" d="M1807.708,876.811a23.609,23.609,0,0,0-2.627-.595c-.08-.015-.165-.027-.249-.04-.2-.03-.4-.062-.6-.089-.172-.025-.348-.047-.527-.068-.154-.019-.305-.038-.463-.053-.14-.016-.284-.031-.428-.044-.239-.021-.478-.04-.721-.059-.123-.009-.245-.015-.368-.024-.278-.016-.551-.031-.829-.041l-.207-.006c-.326-.009-.653-.015-.983-.015s-.674.006-1.008.015c-.052,0-.1,0-.154,0-.313.01-.622.025-.934.044-.064,0-.127.009-.19.012-.316.022-.632.046-.945.078l-.063.006a25.8,25.8,0,0,0-4.712.873" fill="none" stroke="#c9c9cb" stroke-linecap="round" stroke-linejoin="round" stroke-width="1.5"/>
    <path id="路径_534" data-name="路径 534" d="M1798.79,864.106c-3.747.307-5.8,2.547-5.8,6.39V873a7.051,7.051,0,0,1-1.283,3.756l-.064.11a2.549,2.549,0,0,0-.659,1.684c0,2.717,4.386,4.138,8.716,4.138s8.716-1.421,8.716-4.138a2.506,2.506,0,0,0-.535-1.529c-.1-.187-.213-.373-.329-.565a6.121,6.121,0,0,1-1.142-3.454V870.5c0-3.841-2.05-6.081-5.8-6.39,0,0-.463-.035-.924-.035S1798.79,864.106,1798.79,864.106Z" fill="none" stroke="#c9c9cb" stroke-linecap="round" stroke-linejoin="round" stroke-width="1.5"/>
    <line id="直线_211" data-name="直线 211" y2="1.64" transform="translate(1799.705 862.431)" fill="none" stroke="#c9c9cb" stroke-linecap="round" stroke-linejoin="round" stroke-width="1.5"/>
  </g>
</svg>
